<?xml version="1.0" encoding="UTF-8" standalone="no"?>
<svg
   xmlns:dc="http://purl.org/dc/elements/1.1/"
   xmlns:cc="http://creativecommons.org/ns#"
   xmlns:rdf="http://www.w3.org/1999/02/22-rdf-syntax-ns#"
   xmlns:svg="http://www.w3.org/2000/svg"
   xmlns="http://www.w3.org/2000/svg"
   xmlns:sodipodi="http://sodipodi.sourceforge.net/DTD/sodipodi-0.dtd"
   xmlns:inkscape="http://www.inkscape.org/namespaces/inkscape"
   height="8.6331043mm"
   style="clip-rule:evenodd;fill-rule:evenodd;image-rendering:optimizeQuality;shape-rendering:geometricPrecision;text-rendering:geometricPrecision"
   version="1.1"
   viewBox="0 0 133.50425 128.05509"
   width="9.0004702mm"
   xml:space="preserve"
   id="svg4538"
   sodipodi:docname="whatsapp.48_48.svg"
   inkscape:version="0.92.1 r15371"><metadata
     id="metadata4542"><rdf:RDF><cc:Work
         rdf:about=""><dc:format>image/svg+xml</dc:format><dc:type
           rdf:resource="http://purl.org/dc/dcmitype/StillImage" /><dc:title></dc:title></cc:Work></rdf:RDF></metadata><sodipodi:namedview
     pagecolor="#ffffff"
     bordercolor="#666666"
     borderopacity="1"
     objecttolerance="10"
     gridtolerance="10"
     guidetolerance="10"
     inkscape:pageopacity="0"
     inkscape:pageshadow="2"
     inkscape:window-width="1366"
     inkscape:window-height="705"
     id="namedview4540"
     showgrid="false"
     inkscape:zoom="1.4404341"
     inkscape:cx="81.91975"
     inkscape:cy="-49.290694"
     inkscape:window-x="-8"
     inkscape:window-y="-8"
     inkscape:window-maximized="1"
     inkscape:current-layer="svg4538" /><defs
     id="defs4526"><style
       type="text/css"
       id="style4524"><![CDATA[
    .fil2 {fill:#229000}
    .fil0 {fill:#2AB200}
    .fil1 {fill:white}
   ]]></style></defs><g
     id="Layer_x0020_1"
     transform="scale(0.20762714,0.19915256)"><g
       id="_444245648"><rect
         class="fil0"
         height="643"
         rx="69"
         ry="69"
         width="643"
         id="rect4528"
         x="0"
         y="0"
         style="fill:#2ab200" /><path
         class="fil1"
         d="m 325,100 c 120,0 217,97 217,216 0,120 -97,217 -217,217 -38,0 -75,-10 -106,-27 v 0 l -118,37 37,-116 v 0 C 119,395 108,357 108,316 108,197 205,100 325,100 Z m -50,200 c 0,0 16,26 42,47 26,20 40,24 40,24 0,0 23,-29 26,-29 3,-1 23,8 32,13 8,4 20,11 20,14 0,2 -1,20 -7,27 -6,6 -23,22 -39,20 -78,-6 -150,-77 -163,-129 -2,-9 -1,-44 6,-53 8,-9 13,-15 23,-16 10,-1 16,0 19,7 4,7 19,41 20,45 1,4 -20,24 -19,30 z m -31,178 v 0 c 24,12 52,19 81,19 100,0 180,-81 180,-181 0,-99 -80,-180 -180,-180 -100,0 -181,81 -181,180 0,39 13,75 33,104 v 0 0 0 0 l -20,69 69,-21 z"
         id="path4530"
         inkscape:connector-curvature="0"
         style="fill:#ffffff" /><path
         class="fil2"
         d="m 542,316 c 0,167 -180,270 -323,190 l -118,37 100,100 h 372 l 70,-70 V 334 L 506,197 c 22,34 36,75 36,119 z"
         id="path4532"
         inkscape:connector-curvature="0"
         style="fill:#229000" /><path
         class="fil2"
         d="m 177,420 z m 67,58 C 362,537 505,452 505,316 505,217 425,136 325,136 178,136 94,302 177,420 v 0 0 l -20,69 69,-21 z m 145,-62 c -78,-6 -150,-77 -163,-129 -5,-21 1,-66 29,-69 10,-1 16,0 19,7 4,7 19,41 20,45 1,4 -20,24 -19,30 11,19 53,64 82,71 28,-35 21,-35 58,-16 8,4 20,11 20,14 0,30 -27,49 -46,47 z"
         id="path4534"
         inkscape:connector-curvature="0"
         style="fill:#229000" /></g></g></svg>